<svg class="logo" xmlns="http://www.w3.org/2000/svg" width="517.73" height="50.275" viewBox="0 0 517.73 50.275"><defs><style>.twp-logo-path-a{fill:#48d7e5;}.twp-logo-path-b{fill:#fff;}</style></defs><g transform="translate(-96.718 -137.979)"><circle class="twp-logo-path-a" cx="7.832" cy="7.832" r="7.832" transform="translate(598.785 172.183)"/><g transform="translate(96.718 137.979)"><path class="twp-logo-path-b" d="M112.264,186.552v-40.5H96.718V138.51h39.133v7.541H120.3v40.5Z" transform="translate(-96.718 -137.279)"/><path class="twp-logo-path-b" d="M115.291,186.552V138.51h7.173V163.8h.967v22.751Zm24.987,0V169.2a34.494,34.494,0,0,0-.232-3.771,13.469,13.469,0,0,0-1.085-3.984,7.74,7.74,0,0,0-2.535-3.156,7.562,7.562,0,0,0-4.554-1.231,9.561,9.561,0,0,0-3.038.5,6.927,6.927,0,0,0-2.718,1.718,8.684,8.684,0,0,0-1.953,3.337,16.9,16.9,0,0,0-.733,5.419L118.66,166a19.075,19.075,0,0,1,1.786-8.341A14.2,14.2,0,0,1,125.7,151.7a15.541,15.541,0,0,1,8.543-2.217,14.409,14.409,0,0,1,6.6,1.333,11.689,11.689,0,0,1,4.137,3.4,14.8,14.8,0,0,1,2.268,4.4,22.568,22.568,0,0,1,.951,4.42q.216,2.087.218,3.388v20.117Z" transform="translate(-72.221 -137.279)"/><path class="twp-logo-path-b" d="M150.26,181.291a19.014,19.014,0,0,1-9.607-2.368,16.746,16.746,0,0,1-6.456-6.574,19.712,19.712,0,0,1-2.319-9.675,21.919,21.919,0,0,1,2.268-10.259,16.585,16.585,0,0,1,6.305-6.755,17.914,17.914,0,0,1,9.341-2.4,16.737,16.737,0,0,1,9.526,2.62,15.537,15.537,0,0,1,5.823,7.388,25.305,25.305,0,0,1,1.433,11.242H158.6v-2.936q-.035-5.872-2.071-8.573t-6.4-2.7q-4.939,0-7.342,3.052t-2.4,8.926q0,5.472,2.4,8.471a8.438,8.438,0,0,0,7.006,3,9.617,9.617,0,0,0,5.123-1.317,8.6,8.6,0,0,0,3.318-3.819l7.94,2.4a16.094,16.094,0,0,1-6.386,7.574A17.616,17.616,0,0,1,150.26,181.291Zm-12.411-16.782v-6.071h24.79v6.071Z" transform="translate(-50.343 -131.017)"/><path class="twp-logo-path-b" d="M161.588,186.552,147.544,138.51h8.441l9.575,34.7,9.54-34.631,8.441-.067,9.575,34.7,9.543-34.7H211.1l-14.011,48.042h-7.94L179.3,152.389l-9.774,34.163Z" transform="translate(-29.68 -137.279)"/><path class="twp-logo-path-b" d="M192.512,181.291a19.021,19.021,0,0,1-9.608-2.368,16.777,16.777,0,0,1-6.456-6.574,19.712,19.712,0,0,1-2.319-9.675,21.919,21.919,0,0,1,2.268-10.259,16.591,16.591,0,0,1,6.308-6.755,17.9,17.9,0,0,1,9.341-2.4,16.747,16.747,0,0,1,9.526,2.62,15.519,15.519,0,0,1,5.821,7.388,25.271,25.271,0,0,1,1.435,11.242h-7.973v-2.936q-.038-5.872-2.071-8.573t-6.4-2.7q-4.939,0-7.34,3.052t-2.4,8.926q0,5.472,2.4,8.471a8.438,8.438,0,0,0,7.006,3,9.608,9.608,0,0,0,5.12-1.317,8.6,8.6,0,0,0,3.321-3.819l7.94,2.4a16.112,16.112,0,0,1-6.389,7.574A17.611,17.611,0,0,1,192.512,181.291ZM180.1,164.509v-6.071h24.787v6.071Z" transform="translate(5.386 -131.017)"/><path class="twp-logo-path-b" d="M202.667,181.291a13.573,13.573,0,0,1-6.607-1.484,10.14,10.14,0,0,1-4.086-3.956,10.9,10.9,0,0,1-1.387-5.436,12.078,12.078,0,0,1,.87-4.689,9.335,9.335,0,0,1,2.669-3.6,14.18,14.18,0,0,1,4.67-2.486,44.177,44.177,0,0,1,5.088-1.268q2.918-.567,6.338-1.05t7.156-1.051L214.51,157.9q.031-3.739-1.667-5.505t-5.739-1.767a10.429,10.429,0,0,0-4.705,1.132,6.289,6.289,0,0,0-3.168,3.905l-7.34-2.3a13.594,13.594,0,0,1,5.086-7.34q3.753-2.769,10.127-2.769a21.278,21.278,0,0,1,8.457,1.568,10.508,10.508,0,0,1,5.422,5.137,10.984,10.984,0,0,1,1.169,3.889q.2,1.986.2,4.32V180.29h-7.04v-7.806l1.166,1.266a16.076,16.076,0,0,1-5.686,5.723A16.5,16.5,0,0,1,202.667,181.291Zm1.6-6.4a10.355,10.355,0,0,0,4.67-.969,9.3,9.3,0,0,0,3.087-2.368,8.324,8.324,0,0,0,1.551-2.637,10.306,10.306,0,0,0,.717-3.518q.083-1.986.083-3.221l2.47.735q-3.638.567-6.238,1t-4.471.819a29.956,29.956,0,0,0-3.3.851,10.167,10.167,0,0,0-2.37,1.166,4.976,4.976,0,0,0-1.484,1.535,3.891,3.891,0,0,0-.517,2.036,4.186,4.186,0,0,0,.666,2.351,4.585,4.585,0,0,0,1.953,1.619A7.54,7.54,0,0,0,204.268,174.886Z" transform="translate(27.093 -131.017)"/><path class="twp-logo-path-b" d="M206.935,187.121V138.079h8.042v49.042Z" transform="translate(48.655 -137.848)"/><path class="twp-logo-path-b" d="M212.416,155.688v-6.305h25.121v6.305Zm25.121,29.725a33.49,33.49,0,0,1-6.989.584,16.084,16.084,0,0,1-6.122-1.268,8.356,8.356,0,0,1-4.1-3.754,10.7,10.7,0,0,1-1.3-4.77q-.07-2.435-.067-5.5V139.374h8.007v30.859q0,2.171.049,3.8a5.387,5.387,0,0,0,.684,2.669,4.657,4.657,0,0,0,3.838,2.236,25.632,25.632,0,0,0,6-.267Z" transform="translate(55.884 -136.139)"/><path class="twp-logo-path-b" d="M226,186.552V138.51h7.173V163.8h.969v22.751Zm24.989,0V169.2a33.971,33.971,0,0,0-.234-3.771,13.537,13.537,0,0,0-1.083-3.984,7.727,7.727,0,0,0-2.537-3.156,7.562,7.562,0,0,0-4.554-1.231,9.536,9.536,0,0,0-3.036.5,6.911,6.911,0,0,0-2.718,1.718,8.655,8.655,0,0,0-1.953,3.337,16.833,16.833,0,0,0-.733,5.419L229.366,166a19.107,19.107,0,0,1,1.786-8.341,14.2,14.2,0,0,1,5.255-5.955,15.533,15.533,0,0,1,8.541-2.217,14.426,14.426,0,0,1,6.607,1.333,11.689,11.689,0,0,1,4.137,3.4,14.858,14.858,0,0,1,2.268,4.4,22.911,22.911,0,0,1,.951,4.42q.216,2.087.216,3.388v20.117Z" transform="translate(73.797 -137.279)"/><path class="twp-logo-path-b" d="M244.249,186.552V138.51H264.1c.466,0,1.067.019,1.8.051a15.453,15.453,0,0,1,2.036.216,14.485,14.485,0,0,1,6.89,2.769,12.88,12.88,0,0,1,4.037,5.389,19.071,19.071,0,0,1,1.317,7.224,18.791,18.791,0,0,1-1.333,7.189,13.033,13.033,0,0,1-4.054,5.389,14.435,14.435,0,0,1-6.857,2.769c-.621.088-1.308.153-2.052.2s-1.34.067-1.783.067h-11.81v16.78Zm8.042-24.287h11.477c.443,0,.946-.023,1.5-.067a7.92,7.92,0,0,0,1.535-.267,6.143,6.143,0,0,0,3.154-1.769,7.463,7.463,0,0,0,1.635-2.869,10.9,10.9,0,0,0,.482-3.135,11.071,11.071,0,0,0-.482-3.154,7.441,7.441,0,0,0-1.635-2.885,6.143,6.143,0,0,0-3.154-1.769,7.147,7.147,0,0,0-1.535-.25c-.554-.033-1.057-.049-1.5-.049H252.291Z" transform="translate(97.871 -137.279)"/><path class="twp-logo-path-b" d="M278.051,180.438a18.514,18.514,0,0,1-9.443-2.34,16.216,16.216,0,0,1-6.254-6.456,19.656,19.656,0,0,1-2.217-9.471,19.4,19.4,0,0,1,2.268-9.549,16.359,16.359,0,0,1,6.3-6.41,20.213,20.213,0,0,1,18.818.033A16.345,16.345,0,0,1,293.8,152.7a21.159,21.159,0,0,1-.019,18.969,16.315,16.315,0,0,1-6.289,6.442A18.587,18.587,0,0,1,278.051,180.438Zm0-7.242q4.8,0,7.138-3.077a12.776,12.776,0,0,0,2.338-7.947,12.594,12.594,0,0,0-2.37-8.028q-2.369-2.995-7.105-2.994a9.385,9.385,0,0,0-5.322,1.394,8.214,8.214,0,0,0-3.084,3.877,15.235,15.235,0,0,0-1,5.751,12.524,12.524,0,0,0,2.384,8.028Q273.413,173.195,278.051,173.2Z" transform="translate(118.826 -130.163)"/><path class="twp-logo-path-b" d="M277.692,179.72V143.69h8.04v36.03Z" transform="translate(141.981 -130.447)"/><path class="twp-logo-path-b" d="M284.068,180.308v-36.03h7.175v11.175h.967v24.855Zm24.989,0V162.96a33.956,33.956,0,0,0-.234-3.771,13.537,13.537,0,0,0-1.083-3.984,7.727,7.727,0,0,0-2.537-3.156,7.559,7.559,0,0,0-4.552-1.231,9.516,9.516,0,0,0-3.036.5,6.919,6.919,0,0,0-2.72,1.718,8.624,8.624,0,0,0-1.95,3.337,16.761,16.761,0,0,0-.735,5.419l-4.772-2.034a19.108,19.108,0,0,1,1.786-8.341,14.215,14.215,0,0,1,5.255-5.955,15.533,15.533,0,0,1,8.541-2.217,14.426,14.426,0,0,1,6.607,1.333,11.668,11.668,0,0,1,4.137,3.4,14.858,14.858,0,0,1,2.268,4.4,22.737,22.737,0,0,1,.951,4.42,33.672,33.672,0,0,1,.216,3.388v20.117Z" transform="translate(150.391 -131.035)"/><path class="twp-logo-path-b" d="M299.793,155.688v-6.305h25.121v6.305Zm25.121,29.725a33.5,33.5,0,0,1-6.989.584,16.084,16.084,0,0,1-6.122-1.268,8.346,8.346,0,0,1-4.1-3.754,10.735,10.735,0,0,1-1.3-4.77q-.066-2.435-.067-5.5V139.374h8.01v30.859q0,2.171.049,3.8a5.363,5.363,0,0,0,.684,2.669,4.65,4.65,0,0,0,3.836,2.236,25.651,25.651,0,0,0,6.006-.267Z" transform="translate(171.131 -136.139)"/><circle class="twp-logo-path-b" cx="4.084" cy="4.084" r="4.084" transform="translate(419.609)"/></g></g></svg>